<svg width="6504" height="6504" viewBox="0 0 6504 6504" fill="none" xmlns="http://www.w3.org/2000/svg">
<g clip-path="url(#clip0_25_163)">
<rect width="6504" height="6504" fill="white"/>
<path d="M0 1000C0 447.715 447.715 0 1000 0H6504V6504H0V1000Z" fill="url(#paint0_linear_25_163)"/>
<path d="M549 1668C549 1115.72 996.715 668 1549 668H5195C5747.28 668 6195 1115.72 6195 1668V5013C6195 5565.28 5747.28 6013 5195 6013H1549C996.715 6013 549 5565.28 549 5013V1668Z" fill="white"/>
<rect x="3448" y="3405" width="2462" height="1686" rx="200" fill="url(#paint1_linear_25_163)"/>
<rect x="834" y="3405" width="2462" height="1686" rx="200" fill="url(#paint2_linear_25_163)" fill-opacity="0.5"/>
<path d="M1236.43 4067.5V4356H1175.43V4067.5H1236.43ZM1345.5 4230.91V4356H1285.49V4139.62H1342.68V4177.8H1345.22C1350.01 4165.21 1358.04 4155.26 1369.31 4147.93C1380.58 4140.51 1394.24 4136.8 1410.3 4136.8C1425.33 4136.8 1438.43 4140.09 1449.6 4146.66C1460.78 4153.24 1469.47 4162.63 1475.66 4174.84C1481.86 4186.95 1484.96 4201.42 1484.96 4218.23V4356H1424.95V4228.93C1425.04 4215.69 1421.66 4205.36 1414.81 4197.94C1407.95 4190.43 1398.51 4186.67 1386.49 4186.67C1378.42 4186.67 1371.28 4188.41 1365.08 4191.88C1358.98 4195.36 1354.19 4200.43 1350.71 4207.1C1347.33 4213.67 1345.59 4221.61 1345.5 4230.91ZM1647.35 4139.62V4184.7H1517.04V4139.62H1647.35ZM1546.63 4087.78H1606.64V4289.51C1606.64 4295.05 1607.48 4299.37 1609.17 4302.47C1610.87 4305.47 1613.21 4307.59 1616.22 4308.81C1619.32 4310.03 1622.89 4310.64 1626.92 4310.64C1629.74 4310.64 1632.56 4310.4 1635.38 4309.94C1638.19 4309.37 1640.35 4308.95 1641.86 4308.67L1651.3 4353.32C1648.29 4354.26 1644.06 4355.34 1638.62 4356.56C1633.17 4357.88 1626.55 4358.68 1618.75 4358.96C1604.29 4359.52 1591.61 4357.6 1580.72 4353.18C1569.92 4348.77 1561.51 4341.91 1555.5 4332.62C1549.49 4323.32 1546.53 4311.58 1546.63 4297.4V4087.78ZM1782.73 4360.23C1760.47 4360.23 1741.31 4355.72 1725.25 4346.7C1709.29 4337.59 1696.98 4324.73 1688.34 4308.1C1679.7 4291.39 1675.38 4271.62 1675.38 4248.8C1675.38 4226.54 1679.7 4207 1688.34 4190.19C1696.98 4173.38 1709.15 4160.28 1724.83 4150.89C1740.61 4141.5 1759.11 4136.8 1780.33 4136.8C1794.61 4136.8 1807.9 4139.1 1820.2 4143.71C1832.6 4148.21 1843.4 4155.02 1852.6 4164.13C1861.9 4173.24 1869.13 4184.7 1874.3 4198.51C1879.46 4212.22 1882.04 4228.28 1882.04 4246.68V4263.17H1699.33V4225.98H1825.55C1825.55 4217.34 1823.68 4209.68 1819.92 4203.01C1816.16 4196.35 1810.95 4191.13 1804.28 4187.38C1797.71 4183.53 1790.05 4181.6 1781.32 4181.6C1772.21 4181.6 1764.13 4183.71 1757.09 4187.94C1750.14 4192.07 1744.69 4197.66 1740.75 4204.7C1736.8 4211.65 1734.79 4219.4 1734.69 4227.95V4263.31C1734.69 4274.01 1736.66 4283.26 1740.61 4291.06C1744.65 4298.85 1750.33 4304.86 1757.65 4309.09C1764.98 4313.32 1773.67 4315.43 1783.71 4315.43C1790.38 4315.43 1796.49 4314.49 1802.03 4312.61C1807.57 4310.73 1812.31 4307.92 1816.26 4304.16C1820.2 4300.4 1823.21 4295.8 1825.27 4290.35L1880.78 4294.02C1877.96 4307.35 1872.18 4319 1863.45 4328.95C1854.81 4338.81 1843.63 4346.51 1829.92 4352.06C1816.3 4357.5 1800.57 4360.23 1782.73 4360.23ZM1921.21 4356V4139.62H1979.39V4177.37H1981.64C1985.58 4163.95 1992.2 4153.8 2001.5 4146.95C2010.8 4140 2021.51 4136.52 2033.62 4136.52C2036.63 4136.52 2039.87 4136.71 2043.34 4137.09C2046.82 4137.46 2049.87 4137.98 2052.5 4138.64V4191.88C2049.68 4191.04 2045.78 4190.29 2040.81 4189.63C2035.83 4188.97 2031.27 4188.64 2027.14 4188.64C2018.31 4188.64 2010.42 4190.57 2003.47 4194.42C1996.62 4198.18 1991.17 4203.44 1987.13 4210.2C1983.19 4216.96 1981.22 4224.75 1981.22 4233.58V4356H1921.21ZM2291.84 4139.62L2216.19 4356H2148.57L2072.92 4139.62H2136.32L2181.25 4294.44H2183.51L2228.31 4139.62H2291.84ZM2322.55 4356V4139.62H2382.56V4356H2322.55ZM2352.69 4111.73C2343.77 4111.73 2336.12 4108.77 2329.73 4102.85C2323.44 4096.84 2320.29 4089.66 2320.29 4081.3C2320.29 4073.04 2323.44 4065.95 2329.73 4060.03C2336.12 4054.02 2343.77 4051.01 2352.69 4051.01C2361.62 4051.01 2369.22 4054.02 2375.52 4060.03C2381.9 4065.95 2385.1 4073.04 2385.1 4081.3C2385.1 4089.66 2381.9 4096.84 2375.52 4102.85C2369.22 4108.77 2361.62 4111.73 2352.69 4111.73ZM2529.24 4360.23C2506.98 4360.23 2487.83 4355.72 2471.77 4346.7C2455.8 4337.59 2443.5 4324.73 2434.86 4308.1C2426.22 4291.39 2421.9 4271.62 2421.9 4248.8C2421.9 4226.54 2426.22 4207 2434.86 4190.19C2443.5 4173.38 2455.66 4160.28 2471.34 4150.89C2487.12 4141.5 2505.62 4136.8 2526.85 4136.8C2541.12 4136.8 2554.41 4139.1 2566.71 4143.71C2579.11 4148.21 2589.91 4155.02 2599.11 4164.13C2608.41 4173.24 2615.64 4184.7 2620.81 4198.51C2625.97 4212.22 2628.56 4228.28 2628.56 4246.68V4263.17H2445.85V4225.98H2572.07C2572.07 4217.34 2570.19 4209.68 2566.43 4203.01C2562.68 4196.35 2557.46 4191.13 2550.8 4187.38C2544.22 4183.53 2536.57 4181.6 2527.83 4181.6C2518.72 4181.6 2510.65 4183.71 2503.6 4187.94C2496.65 4192.07 2491.21 4197.66 2487.26 4204.7C2483.32 4211.65 2481.3 4219.4 2481.2 4227.95V4263.31C2481.2 4274.01 2483.18 4283.26 2487.12 4291.06C2491.16 4298.85 2496.84 4304.86 2504.17 4309.09C2511.49 4313.32 2520.18 4315.43 2530.23 4315.43C2536.9 4315.43 2543 4314.49 2548.54 4312.61C2554.08 4310.73 2558.83 4307.92 2562.77 4304.16C2566.71 4300.4 2569.72 4295.8 2571.79 4290.35L2627.29 4294.02C2624.47 4307.35 2618.7 4319 2609.96 4328.95C2601.32 4338.81 2590.15 4346.51 2576.43 4352.06C2562.82 4357.5 2547.09 4360.23 2529.24 4360.23ZM2708.85 4356L2649.97 4139.62H2710.68L2744.21 4285H2746.18L2781.12 4139.62H2840.71L2876.21 4284.16H2878.04L2911 4139.62H2971.58L2912.84 4356H2849.3L2812.11 4219.92H2809.44L2772.25 4356H2708.85Z" fill="#585858"/>
<path d="M3813.01 4356H3747.65L3847.24 4067.5H3925.85L4025.3 4356H3959.94L3887.67 4133.42H3885.42L3813.01 4356ZM3808.92 4242.6H3963.32V4290.21H3808.92V4242.6ZM4146.59 4360.23C4124.43 4360.23 4105.37 4355.53 4089.4 4346.14C4073.53 4336.65 4061.32 4323.51 4052.77 4306.69C4044.32 4289.88 4040.09 4270.54 4040.09 4248.66C4040.09 4226.49 4044.37 4207.05 4052.91 4190.34C4061.55 4173.52 4073.81 4160.42 4089.68 4151.03C4105.55 4141.55 4124.43 4136.8 4146.31 4136.8C4165.19 4136.8 4181.72 4140.23 4195.9 4147.09C4210.08 4153.94 4221.3 4163.57 4229.57 4175.97C4237.83 4188.36 4242.39 4202.92 4243.23 4219.64H4186.6C4185 4208.84 4180.78 4200.15 4173.92 4193.58C4167.16 4186.91 4158.29 4183.57 4147.3 4183.57C4138 4183.57 4129.88 4186.11 4122.93 4191.18C4116.07 4196.16 4110.72 4203.44 4106.87 4213.02C4103.02 4222.59 4101.09 4234.19 4101.09 4247.81C4101.09 4261.62 4102.97 4273.36 4106.73 4283.03C4110.58 4292.7 4115.98 4300.07 4122.93 4305.15C4129.88 4310.22 4138 4312.75 4147.3 4312.75C4154.15 4312.75 4160.31 4311.34 4165.75 4308.53C4171.29 4305.71 4175.85 4301.62 4179.42 4296.27C4183.08 4290.82 4185.47 4284.3 4186.6 4276.69H4243.23C4242.29 4293.22 4237.78 4307.77 4229.71 4320.36C4221.73 4332.85 4210.69 4342.62 4196.6 4349.66C4182.52 4356.7 4165.85 4360.23 4146.59 4360.23ZM4379.42 4360.23C4357.26 4360.23 4338.19 4355.53 4322.23 4346.14C4306.35 4336.65 4294.14 4323.51 4285.6 4306.69C4277.15 4289.88 4272.92 4270.54 4272.92 4248.66C4272.92 4226.49 4277.19 4207.05 4285.74 4190.34C4294.38 4173.52 4306.64 4160.42 4322.51 4151.03C4338.38 4141.55 4357.26 4136.8 4379.14 4136.8C4398.01 4136.8 4414.54 4140.23 4428.72 4147.09C4442.91 4153.94 4454.13 4163.57 4462.39 4175.97C4470.66 4188.36 4475.21 4202.92 4476.06 4219.64H4419.43C4417.83 4208.84 4413.6 4200.15 4406.75 4193.58C4399.99 4186.91 4391.11 4183.57 4380.12 4183.57C4370.83 4183.57 4362.7 4186.11 4355.75 4191.18C4348.9 4196.16 4343.54 4203.44 4339.69 4213.02C4335.84 4222.59 4333.92 4234.19 4333.92 4247.81C4333.92 4261.62 4335.8 4273.36 4339.55 4283.03C4343.4 4292.7 4348.8 4300.07 4355.75 4305.15C4362.7 4310.22 4370.83 4312.75 4380.12 4312.75C4386.98 4312.75 4393.13 4311.34 4398.58 4308.53C4404.12 4305.71 4408.67 4301.62 4412.24 4296.27C4415.9 4290.82 4418.3 4284.3 4419.43 4276.69H4476.06C4475.12 4293.22 4470.61 4307.77 4462.53 4320.36C4454.55 4332.85 4443.52 4342.62 4429.43 4349.66C4415.34 4356.7 4398.67 4360.23 4379.42 4360.23ZM4613.09 4360.23C4590.83 4360.23 4571.67 4355.72 4555.61 4346.7C4539.65 4337.59 4527.35 4324.73 4518.71 4308.1C4510.07 4291.39 4505.75 4271.62 4505.75 4248.8C4505.75 4226.54 4510.07 4207 4518.71 4190.19C4527.35 4173.38 4539.51 4160.28 4555.19 4150.89C4570.97 4141.5 4589.47 4136.8 4610.69 4136.8C4624.97 4136.8 4638.26 4139.1 4650.56 4143.71C4662.96 4148.21 4673.76 4155.02 4682.96 4164.13C4692.26 4173.24 4699.49 4184.7 4704.66 4198.51C4709.82 4212.22 4712.4 4228.28 4712.4 4246.68V4263.17H4529.69V4225.98H4655.91C4655.91 4217.34 4654.04 4209.68 4650.28 4203.01C4646.52 4196.35 4641.31 4191.13 4634.64 4187.38C4628.07 4183.53 4620.42 4181.6 4611.68 4181.6C4602.57 4181.6 4594.49 4183.71 4587.45 4187.94C4580.5 4192.07 4575.05 4197.66 4571.11 4204.7C4567.17 4211.65 4565.15 4219.4 4565.05 4227.95V4263.31C4565.05 4274.01 4567.02 4283.26 4570.97 4291.06C4575.01 4298.85 4580.69 4304.86 4588.01 4309.09C4595.34 4313.32 4604.03 4315.43 4614.08 4315.43C4620.74 4315.43 4626.85 4314.49 4632.39 4312.61C4637.93 4310.73 4642.67 4307.92 4646.62 4304.16C4650.56 4300.4 4653.57 4295.8 4655.63 4290.35L4711.14 4294.02C4708.32 4307.35 4702.54 4319 4693.81 4328.95C4685.17 4338.81 4673.99 4346.51 4660.28 4352.06C4646.66 4357.5 4630.93 4360.23 4613.09 4360.23ZM4751.57 4437.14V4139.62H4810.73V4175.97H4813.41C4816.04 4170.14 4819.84 4164.23 4824.82 4158.22C4829.89 4152.11 4836.47 4147.04 4844.54 4143C4852.71 4138.87 4862.85 4136.8 4874.97 4136.8C4890.75 4136.8 4905.3 4140.94 4918.64 4149.2C4931.98 4157.37 4942.64 4169.72 4950.62 4186.25C4958.6 4202.68 4962.59 4223.3 4962.59 4248.09C4962.59 4272.23 4958.69 4292.61 4950.9 4309.23C4943.2 4325.76 4932.68 4338.3 4919.34 4346.84C4906.1 4355.3 4891.26 4359.52 4874.83 4359.52C4863.18 4359.52 4853.28 4357.6 4845.11 4353.75C4837.03 4349.9 4830.41 4345.06 4825.24 4339.24C4820.08 4333.32 4816.13 4327.36 4813.41 4321.35H4811.58V4437.14H4751.57ZM4810.31 4247.81C4810.31 4260.68 4812.09 4271.9 4815.66 4281.48C4819.23 4291.06 4824.4 4298.52 4831.16 4303.88C4837.92 4309.14 4846.14 4311.77 4855.81 4311.77C4865.58 4311.77 4873.84 4309.09 4880.6 4303.74C4887.37 4298.29 4892.48 4290.78 4895.96 4281.2C4899.53 4271.52 4901.31 4260.4 4901.31 4247.81C4901.31 4235.32 4899.58 4224.33 4896.1 4214.85C4892.63 4205.36 4887.51 4197.94 4880.75 4192.59C4873.98 4187.24 4865.67 4184.56 4855.81 4184.56C4846.04 4184.56 4837.78 4187.14 4831.02 4192.31C4824.35 4197.47 4819.23 4204.8 4815.66 4214.28C4812.09 4223.77 4810.31 4234.94 4810.31 4247.81ZM5117.69 4139.62V4184.7H4987.39V4139.62H5117.69ZM5016.97 4087.78H5076.98V4289.51C5076.98 4295.05 5077.82 4299.37 5079.52 4302.47C5081.21 4305.47 5083.55 4307.59 5086.56 4308.81C5089.66 4310.03 5093.23 4310.64 5097.27 4310.64C5100.08 4310.64 5102.9 4310.4 5105.72 4309.94C5108.53 4309.37 5110.69 4308.95 5112.2 4308.67L5121.64 4353.32C5118.63 4354.26 5114.4 4355.34 5108.96 4356.56C5103.51 4357.88 5096.89 4358.68 5089.09 4358.96C5074.63 4359.52 5061.95 4357.6 5051.06 4353.18C5040.26 4348.77 5031.85 4341.91 5025.84 4332.62C5019.83 4323.32 5016.87 4311.58 5016.97 4297.4V4087.78ZM5253.07 4360.23C5230.81 4360.23 5211.65 4355.72 5195.59 4346.7C5179.63 4337.59 5167.33 4324.73 5158.69 4308.1C5150.05 4291.39 5145.72 4271.62 5145.72 4248.8C5145.72 4226.54 5150.05 4207 5158.69 4190.19C5167.33 4173.38 5179.49 4160.28 5195.17 4150.89C5210.95 4141.5 5229.45 4136.8 5250.67 4136.8C5264.95 4136.8 5278.24 4139.1 5290.54 4143.71C5302.94 4148.21 5313.74 4155.02 5322.94 4164.13C5332.24 4173.24 5339.47 4184.7 5344.64 4198.51C5349.8 4212.22 5352.38 4228.28 5352.38 4246.68V4263.17H5169.67V4225.98H5295.89C5295.89 4217.34 5294.02 4209.68 5290.26 4203.01C5286.5 4196.35 5281.29 4191.13 5274.62 4187.38C5268.05 4183.53 5260.39 4181.6 5251.66 4181.6C5242.55 4181.6 5234.47 4183.71 5227.43 4187.94C5220.48 4192.07 5215.03 4197.66 5211.09 4204.7C5207.14 4211.65 5205.13 4219.4 5205.03 4227.95V4263.31C5205.03 4274.01 5207 4283.26 5210.95 4291.06C5214.99 4298.85 5220.67 4304.86 5227.99 4309.09C5235.32 4313.32 5244.01 4315.43 5254.06 4315.43C5260.72 4315.43 5266.83 4314.49 5272.37 4312.61C5277.91 4310.73 5282.65 4307.92 5286.6 4304.16C5290.54 4300.4 5293.55 4295.8 5295.61 4290.35L5351.12 4294.02C5348.3 4307.35 5342.52 4319 5333.79 4328.95C5325.15 4338.81 5313.97 4346.51 5300.26 4352.06C5286.64 4357.5 5270.91 4360.23 5253.07 4360.23ZM5471.28 4359.52C5454.84 4359.52 5439.96 4355.3 5426.62 4346.84C5413.38 4338.3 5402.86 4325.76 5395.07 4309.23C5387.37 4292.61 5383.52 4272.23 5383.52 4248.09C5383.52 4223.3 5387.51 4202.68 5395.49 4186.25C5403.47 4169.72 5414.09 4157.37 5427.33 4149.2C5440.66 4140.94 5455.27 4136.8 5471.14 4136.8C5483.25 4136.8 5493.35 4138.87 5501.43 4143C5509.6 4147.04 5516.17 4152.11 5521.15 4158.22C5526.22 4164.23 5530.07 4170.14 5532.7 4175.97H5534.53V4067.5H5594.4V4356H5535.23V4321.35H5532.7C5529.88 4327.36 5525.89 4333.32 5520.73 4339.24C5515.65 4345.06 5509.03 4349.9 5500.86 4353.75C5492.79 4357.6 5482.92 4359.52 5471.28 4359.52ZM5490.3 4311.77C5499.97 4311.77 5508.14 4309.14 5514.81 4303.88C5521.57 4298.52 5526.74 4291.06 5530.3 4281.48C5533.97 4271.9 5535.8 4260.68 5535.8 4247.81C5535.8 4234.94 5534.01 4223.77 5530.45 4214.28C5526.88 4204.8 5521.71 4197.47 5514.95 4192.31C5508.19 4187.14 5499.97 4184.56 5490.3 4184.56C5480.44 4184.56 5472.12 4187.24 5465.36 4192.59C5458.6 4197.94 5453.48 4205.36 5450.01 4214.85C5446.53 4224.33 5444.8 4235.32 5444.8 4247.81C5444.8 4260.4 5446.53 4271.52 5450.01 4281.2C5453.58 4290.78 5458.69 4298.29 5465.36 4303.74C5472.12 4309.09 5480.44 4311.77 5490.3 4311.77Z" fill="#585858"/>
<path d="M2960.44 2192.16C2936.78 2226.16 2945.16 2272.9 2979.16 2296.56C3013.16 2320.22 3059.9 2311.84 3083.56 2277.84L2960.44 2192.16ZM5476.89 409.644C5469.79 368.836 5430.95 341.51 5390.14 348.61L4725.13 464.315C4684.33 471.415 4657 510.253 4664.1 551.061C4671.2 591.869 4710.04 619.195 4750.85 612.095L5341.97 509.246L5444.82 1100.37C5451.92 1141.17 5490.75 1168.5 5531.56 1161.4C5572.37 1154.3 5599.7 1115.46 5592.59 1074.65L5476.89 409.644ZM4154.08 1977.34L4096.1 2024.91L4154.08 1977.34ZM3562.98 1457.53L3501.42 1414.69L3562.98 1457.53ZM3722.37 1451.21L3664.39 1498.79L3722.37 1451.21ZM3083.56 2277.84L3624.54 1500.37L3501.42 1414.69L2960.44 2192.16L3083.56 2277.84ZM3664.39 1498.79L4096.1 2024.91L4212.06 1929.76L3780.35 1403.64L3664.39 1498.79ZM4374.51 2014.61L5464.34 465.657L5341.66 379.343L4251.83 1928.29L4374.51 2014.61ZM4096.1 2024.91C4169.49 2114.36 4307.93 2109.23 4374.51 2014.61L4251.83 1928.29C4242.32 1941.81 4222.55 1942.54 4212.06 1929.76L4096.1 2024.91ZM3624.54 1500.37C3634.02 1486.76 3653.87 1485.97 3664.39 1498.79L3780.35 1403.64C3706.72 1313.9 3567.72 1319.41 3501.42 1414.69L3624.54 1500.37Z" fill="url(#paint3_linear_25_163)"/>
<rect x="3448" y="1514" width="2462" height="1762" rx="200" fill="url(#paint4_linear_25_163)"/>
<path d="M3505.1 1411.15C3481.71 1445.33 3490.46 1492.01 3524.65 1515.4C3558.83 1538.79 3605.51 1530.04 3628.9 1495.85L3505.1 1411.15ZM5476.93 409.864C5469.95 369.034 5431.19 341.593 5390.36 348.572L4725.01 462.3C4684.18 469.279 4656.74 508.035 4663.72 548.865C4670.7 589.694 4709.46 617.135 4750.29 610.156L5341.71 509.064L5442.8 1100.49C5449.78 1141.32 5488.54 1168.76 5529.36 1161.78C5570.19 1154.8 5597.63 1116.04 5590.66 1075.21L5476.93 409.864ZM4145 1978.79L4086.55 2025.79L4145 1978.79ZM4304.54 1973.91L4243.33 1930.57L4304.54 1973.91ZM3659.41 1494.67L4086.55 2025.79L4203.44 1931.79L3776.3 1400.67L3659.41 1494.67ZM4365.75 2017.25L5464.21 465.84L5341.79 379.16L4243.33 1930.57L4365.75 2017.25ZM4086.55 2025.79C4159.37 2116.34 4298.6 2112.08 4365.75 2017.25L4243.33 1930.57C4233.73 1944.11 4213.84 1944.72 4203.44 1931.79L4086.55 2025.79ZM3628.9 1495.85C3636.1 1485.33 3651.42 1484.73 3659.41 1494.67L3776.3 1400.67C3705.26 1312.33 3569.11 1317.6 3505.1 1411.15L3628.9 1495.85Z" fill="url(#paint5_linear_25_163)"/>
<rect x="834" y="1514" width="2462" height="1762" rx="200" fill="url(#paint6_linear_25_163)"/>
<path d="M1354.17 2539H1288.81L1388.4 2250.5H1467.01L1566.47 2539H1501.1L1428.83 2316.42H1426.58L1354.17 2539ZM1350.09 2425.6H1504.48V2473.21H1350.09V2425.6ZM1600.06 2620.14V2322.62H1659.23V2358.97H1661.91C1664.54 2353.14 1668.34 2347.23 1673.32 2341.22C1678.39 2335.11 1684.96 2330.04 1693.04 2326C1701.21 2321.87 1711.35 2319.8 1723.47 2319.8C1739.24 2319.8 1753.8 2323.94 1767.14 2332.2C1780.47 2340.37 1791.13 2352.72 1799.11 2369.25C1807.1 2385.68 1811.09 2406.3 1811.09 2431.09C1811.09 2455.23 1807.19 2475.61 1799.4 2492.23C1791.7 2508.76 1781.18 2521.3 1767.84 2529.84C1754.6 2538.3 1739.76 2542.52 1723.33 2542.52C1711.68 2542.52 1701.77 2540.6 1693.6 2536.75C1685.53 2532.9 1678.9 2528.06 1673.74 2522.24C1668.57 2516.32 1664.63 2510.36 1661.91 2504.35H1660.07V2620.14H1600.06ZM1658.81 2430.81C1658.81 2443.68 1660.59 2454.9 1664.16 2464.48C1667.73 2474.06 1672.89 2481.52 1679.66 2486.88C1686.42 2492.14 1694.64 2494.77 1704.31 2494.77C1714.08 2494.77 1722.34 2492.09 1729.1 2486.74C1735.86 2481.29 1740.98 2473.78 1744.46 2464.2C1748.03 2454.52 1749.81 2443.4 1749.81 2430.81C1749.81 2418.32 1748.07 2407.33 1744.6 2397.85C1741.12 2388.36 1736 2380.94 1729.24 2375.59C1722.48 2370.24 1714.17 2367.56 1704.31 2367.56C1694.54 2367.56 1686.28 2370.14 1679.51 2375.31C1672.85 2380.47 1667.73 2387.8 1664.16 2397.28C1660.59 2406.77 1658.81 2417.94 1658.81 2430.81ZM1851.1 2620.14V2322.62H1910.26V2358.97H1912.94C1915.57 2353.14 1919.37 2347.23 1924.35 2341.22C1929.42 2335.11 1935.99 2330.04 1944.07 2326C1952.24 2321.87 1962.38 2319.8 1974.5 2319.8C1990.28 2319.8 2004.83 2323.94 2018.17 2332.2C2031.51 2340.37 2042.17 2352.72 2050.15 2369.25C2058.13 2385.68 2062.12 2406.3 2062.12 2431.09C2062.12 2455.23 2058.22 2475.61 2050.43 2492.23C2042.73 2508.76 2032.21 2521.3 2018.87 2529.84C2005.63 2538.3 1990.79 2542.52 1974.36 2542.52C1962.71 2542.52 1952.81 2540.6 1944.64 2536.75C1936.56 2532.9 1929.94 2528.06 1924.77 2522.24C1919.61 2516.32 1915.66 2510.36 1912.94 2504.35H1911.11V2620.14H1851.1ZM1909.84 2430.81C1909.84 2443.68 1911.62 2454.9 1915.19 2464.48C1918.76 2474.06 1923.93 2481.52 1930.69 2486.88C1937.45 2492.14 1945.67 2494.77 1955.34 2494.77C1965.11 2494.77 1973.37 2492.09 1980.13 2486.74C1986.9 2481.29 1992.01 2473.78 1995.49 2464.2C1999.06 2454.52 2000.84 2443.4 2000.84 2430.81C2000.84 2418.32 1999.11 2407.33 1995.63 2397.85C1992.16 2388.36 1987.04 2380.94 1980.28 2375.59C1973.51 2370.24 1965.2 2367.56 1955.34 2367.56C1945.57 2367.56 1937.31 2370.14 1930.55 2375.31C1923.88 2380.47 1918.76 2387.8 1915.19 2397.28C1911.62 2406.77 1909.84 2417.94 1909.84 2430.81ZM2162.14 2250.5V2539H2102.13V2250.5H2162.14ZM2210.21 2539V2322.62H2270.22V2539H2210.21ZM2240.36 2294.73C2231.44 2294.73 2223.78 2291.77 2217.4 2285.85C2211.11 2279.84 2207.96 2272.66 2207.96 2264.3C2207.96 2256.04 2211.11 2248.95 2217.4 2243.03C2223.78 2237.02 2231.44 2234.01 2240.36 2234.01C2249.28 2234.01 2256.89 2237.02 2263.18 2243.03C2269.57 2248.95 2272.76 2256.04 2272.76 2264.3C2272.76 2272.66 2269.57 2279.84 2263.18 2285.85C2256.89 2291.77 2249.28 2294.73 2240.36 2294.73ZM2416.91 2543.23C2394.65 2543.23 2375.49 2538.72 2359.43 2529.7C2343.47 2520.59 2331.16 2507.73 2322.52 2491.1C2313.88 2474.39 2309.56 2454.62 2309.56 2431.8C2309.56 2409.54 2313.88 2390 2322.52 2373.19C2331.16 2356.38 2343.33 2343.28 2359.01 2333.89C2374.79 2324.5 2393.29 2319.8 2414.51 2319.8C2428.79 2319.8 2442.08 2322.1 2454.38 2326.71C2466.78 2331.21 2477.58 2338.02 2486.78 2347.13C2496.08 2356.24 2503.31 2367.7 2508.47 2381.51C2513.64 2395.22 2516.22 2411.28 2516.22 2429.68V2446.17H2333.51V2408.98H2459.73C2459.73 2400.34 2457.85 2392.68 2454.1 2386.01C2450.34 2379.35 2445.13 2374.13 2438.46 2370.38C2431.89 2366.53 2424.23 2364.6 2415.5 2364.6C2406.39 2364.6 2398.31 2366.71 2391.27 2370.94C2384.32 2375.07 2378.87 2380.66 2374.93 2387.7C2370.98 2394.65 2368.96 2402.4 2368.87 2410.95V2446.31C2368.87 2457.01 2370.84 2466.26 2374.79 2474.06C2378.82 2481.85 2384.51 2487.86 2391.83 2492.09C2399.16 2496.32 2407.84 2498.43 2417.89 2498.43C2424.56 2498.43 2430.67 2497.49 2436.21 2495.61C2441.75 2493.73 2446.49 2490.92 2450.43 2487.16C2454.38 2483.4 2457.38 2478.8 2459.45 2473.35L2514.95 2477.02C2512.14 2490.35 2506.36 2502 2497.63 2511.95C2488.99 2521.81 2477.81 2529.51 2464.1 2535.06C2450.48 2540.5 2434.75 2543.23 2416.91 2543.23ZM2635.12 2542.52C2618.68 2542.52 2603.8 2538.3 2590.46 2529.84C2577.22 2521.3 2566.7 2508.76 2558.91 2492.23C2551.2 2475.61 2547.35 2455.23 2547.35 2431.09C2547.35 2406.3 2551.35 2385.68 2559.33 2369.25C2567.31 2352.72 2577.92 2340.37 2591.16 2332.2C2604.5 2323.94 2619.1 2319.8 2634.98 2319.8C2647.09 2319.8 2657.19 2321.87 2665.26 2326C2673.43 2330.04 2680.01 2335.11 2684.99 2341.22C2690.06 2347.23 2693.91 2353.14 2696.54 2358.97H2698.37V2250.5H2758.24V2539H2699.07V2504.35H2696.54C2693.72 2510.36 2689.73 2516.32 2684.56 2522.24C2679.49 2528.06 2672.87 2532.9 2664.7 2536.75C2656.62 2540.6 2646.76 2542.52 2635.12 2542.52ZM2654.13 2494.77C2663.81 2494.77 2671.98 2492.14 2678.65 2486.88C2685.41 2481.52 2690.57 2474.06 2694.14 2464.48C2697.8 2454.9 2699.64 2443.68 2699.64 2430.81C2699.64 2417.94 2697.85 2406.77 2694.28 2397.28C2690.71 2387.8 2685.55 2380.47 2678.79 2375.31C2672.03 2370.14 2663.81 2367.56 2654.13 2367.56C2644.27 2367.56 2635.96 2370.24 2629.2 2375.59C2622.44 2380.94 2617.32 2388.36 2613.85 2397.85C2610.37 2407.33 2608.63 2418.32 2608.63 2430.81C2608.63 2443.4 2610.37 2454.52 2613.85 2464.2C2617.41 2473.78 2622.53 2481.29 2629.2 2486.74C2635.96 2492.09 2644.27 2494.77 2654.13 2494.77Z" fill="#585858"/>
<path d="M3870.43 2394.75C3870.43 2426.21 3864.46 2452.97 3852.54 2475.04C3840.7 2497.11 3824.55 2513.97 3804.08 2525.62C3783.7 2537.17 3760.78 2542.94 3735.33 2542.94C3709.69 2542.94 3686.68 2537.12 3666.3 2525.48C3645.92 2513.83 3629.82 2496.97 3617.98 2474.9C3606.15 2452.83 3600.23 2426.11 3600.23 2394.75C3600.23 2363.29 3606.15 2336.52 3617.98 2314.45C3629.82 2292.38 3645.92 2275.57 3666.3 2264.02C3686.68 2252.37 3709.69 2246.55 3735.33 2246.55C3760.78 2246.55 3783.7 2252.37 3804.08 2264.02C3824.55 2275.57 3840.7 2292.38 3852.54 2314.45C3864.46 2336.52 3870.43 2363.29 3870.43 2394.75ZM3808.58 2394.75C3808.58 2374.37 3805.53 2357.18 3799.43 2343.19C3793.42 2329.2 3784.92 2318.58 3773.93 2311.35C3762.94 2304.12 3750.07 2300.5 3735.33 2300.5C3720.59 2300.5 3707.72 2304.12 3696.73 2311.35C3685.74 2318.58 3677.2 2329.2 3671.09 2343.19C3665.08 2357.18 3662.08 2374.37 3662.08 2394.75C3662.08 2415.13 3665.08 2432.31 3671.09 2446.31C3677.2 2460.3 3685.74 2470.91 3696.73 2478.14C3707.72 2485.37 3720.59 2488.99 3735.33 2488.99C3750.07 2488.99 3762.94 2485.37 3773.93 2478.14C3784.92 2470.91 3793.42 2460.3 3799.43 2446.31C3805.53 2432.31 3808.58 2415.13 3808.58 2394.75ZM3974.49 2413.91V2539H3914.48V2322.62H3971.68V2360.8H3974.21C3979 2348.21 3987.03 2338.26 3998.3 2330.93C4009.57 2323.51 4023.24 2319.8 4039.3 2319.8C4054.32 2319.8 4067.42 2323.09 4078.6 2329.66C4089.77 2336.24 4098.46 2345.63 4104.66 2357.84C4110.86 2369.95 4113.96 2384.42 4113.96 2401.23V2539H4053.95V2411.93C4054.04 2398.69 4050.66 2388.36 4043.8 2380.94C4036.95 2373.43 4027.51 2369.67 4015.49 2369.67C4007.41 2369.67 4000.27 2371.41 3994.08 2374.88C3987.97 2378.36 3983.18 2383.43 3979.71 2390.1C3976.33 2396.67 3974.59 2404.61 3974.49 2413.91ZM4221.27 2250.5V2539H4161.25V2250.5H4221.27ZM4269.34 2539V2322.62H4329.35V2539H4269.34ZM4299.49 2294.73C4290.56 2294.73 4282.91 2291.77 4276.52 2285.85C4270.23 2279.84 4267.08 2272.66 4267.08 2264.3C4267.08 2256.04 4270.23 2248.95 4276.52 2243.03C4282.91 2237.02 4290.56 2234.01 4299.49 2234.01C4308.41 2234.01 4316.01 2237.02 4322.31 2243.03C4328.69 2248.95 4331.89 2256.04 4331.89 2264.3C4331.89 2272.66 4328.69 2279.84 4322.31 2285.85C4316.01 2291.77 4308.41 2294.73 4299.49 2294.73ZM4437.43 2413.91V2539H4377.42V2322.62H4434.62V2360.8H4437.15C4441.94 2348.21 4449.97 2338.26 4461.24 2330.93C4472.51 2323.51 4486.18 2319.8 4502.23 2319.8C4517.26 2319.8 4530.36 2323.09 4541.54 2329.66C4552.71 2336.24 4561.4 2345.63 4567.6 2357.84C4573.8 2369.95 4576.9 2384.42 4576.9 2401.23V2539H4516.89V2411.93C4516.98 2398.69 4513.6 2388.36 4506.74 2380.94C4499.89 2373.43 4490.45 2369.67 4478.43 2369.67C4470.35 2369.67 4463.21 2371.41 4457.01 2374.88C4450.91 2378.36 4446.12 2383.43 4442.65 2390.1C4439.27 2396.67 4437.53 2404.61 4437.43 2413.91ZM4722.8 2543.23C4700.55 2543.23 4681.39 2538.72 4665.33 2529.7C4649.36 2520.59 4637.06 2507.73 4628.42 2491.1C4619.78 2474.39 4615.46 2454.62 4615.46 2431.8C4615.46 2409.54 4619.78 2390 4628.42 2373.19C4637.06 2356.38 4649.22 2343.28 4664.91 2333.89C4680.68 2324.5 4699.18 2319.8 4720.41 2319.8C4734.68 2319.8 4747.97 2322.1 4760.28 2326.71C4772.67 2331.21 4783.47 2338.02 4792.68 2347.13C4801.97 2356.24 4809.21 2367.7 4814.37 2381.51C4819.54 2395.22 4822.12 2411.28 4822.12 2429.68V2446.17H4639.41V2408.98H4765.63C4765.63 2400.34 4763.75 2392.68 4759.99 2386.01C4756.24 2379.35 4751.03 2374.13 4744.36 2370.38C4737.78 2366.53 4730.13 2364.6 4721.4 2364.6C4712.29 2364.6 4704.21 2366.71 4697.17 2370.94C4690.22 2375.07 4684.77 2380.66 4680.82 2387.7C4676.88 2394.65 4674.86 2402.4 4674.77 2410.95V2446.31C4674.77 2457.01 4676.74 2466.26 4680.68 2474.06C4684.72 2481.85 4690.4 2487.86 4697.73 2492.09C4705.05 2496.32 4713.74 2498.43 4723.79 2498.43C4730.46 2498.43 4736.56 2497.49 4742.1 2495.61C4747.64 2493.73 4752.39 2490.92 4756.33 2487.16C4760.28 2483.4 4763.28 2478.8 4765.35 2473.35L4820.85 2477.02C4818.03 2490.35 4812.26 2502 4803.52 2511.95C4794.88 2521.81 4783.71 2529.51 4770 2535.06C4756.38 2540.5 4740.65 2543.23 4722.8 2543.23ZM4943.23 2300.79V2250.5H5180.18V2300.79H5091.85V2539H5031.56V2300.79H4943.23ZM5285.3 2543.23C5263.05 2543.23 5243.89 2538.72 5227.83 2529.7C5211.86 2520.59 5199.56 2507.73 5190.92 2491.1C5182.28 2474.39 5177.96 2454.62 5177.96 2431.8C5177.96 2409.54 5182.28 2390 5190.92 2373.19C5199.56 2356.38 5211.72 2343.28 5227.41 2333.89C5243.18 2324.5 5261.68 2319.8 5282.91 2319.8C5297.18 2319.8 5310.47 2322.1 5322.78 2326.71C5335.17 2331.21 5345.97 2338.02 5355.18 2347.13C5364.47 2356.24 5371.71 2367.7 5376.87 2381.51C5382.04 2395.22 5384.62 2411.28 5384.62 2429.68V2446.17H5201.91V2408.98H5328.13C5328.13 2400.34 5326.25 2392.68 5322.49 2386.01C5318.74 2379.35 5313.53 2374.13 5306.86 2370.38C5300.28 2366.53 5292.63 2364.6 5283.9 2364.6C5274.79 2364.6 5266.71 2366.71 5259.67 2370.94C5252.72 2375.07 5247.27 2380.66 5243.32 2387.7C5239.38 2394.65 5237.36 2402.4 5237.27 2410.95V2446.31C5237.27 2457.01 5239.24 2466.26 5243.18 2474.06C5247.22 2481.85 5252.9 2487.86 5260.23 2492.09C5267.55 2496.32 5276.24 2498.43 5286.29 2498.43C5292.96 2498.43 5299.06 2497.49 5304.6 2495.61C5310.14 2493.73 5314.89 2490.92 5318.83 2487.16C5322.78 2483.4 5325.78 2478.8 5327.85 2473.35L5383.35 2477.02C5380.53 2490.35 5374.76 2502 5366.02 2511.95C5357.38 2521.81 5346.21 2529.51 5332.5 2535.06C5318.88 2540.5 5303.15 2543.23 5285.3 2543.23ZM5603.81 2384.32L5548.87 2387.7C5547.94 2383.01 5545.92 2378.78 5542.82 2375.03C5539.72 2371.18 5535.63 2368.12 5530.56 2365.87C5525.58 2363.52 5519.62 2362.35 5512.67 2362.35C5503.37 2362.35 5495.53 2364.32 5489.15 2368.26C5482.76 2372.11 5479.57 2377.28 5479.57 2383.76C5479.57 2388.92 5481.63 2393.29 5485.76 2396.86C5489.9 2400.43 5496.99 2403.29 5507.04 2405.45L5546.2 2413.34C5567.24 2417.66 5582.92 2424.61 5593.25 2434.19C5603.58 2443.77 5608.75 2456.36 5608.75 2471.95C5608.75 2486.13 5604.57 2498.57 5596.21 2509.28C5587.94 2519.98 5576.58 2528.34 5562.12 2534.35C5547.75 2540.27 5531.17 2543.23 5512.39 2543.23C5483.75 2543.23 5460.92 2537.26 5443.93 2525.34C5427.02 2513.31 5417.11 2496.97 5414.2 2476.31L5473.23 2473.21C5475.01 2481.95 5479.33 2488.61 5486.19 2493.22C5493.04 2497.72 5501.82 2499.98 5512.53 2499.98C5523.05 2499.98 5531.5 2497.96 5537.89 2493.92C5544.37 2489.79 5547.65 2484.48 5547.75 2478C5547.65 2472.56 5545.35 2468.09 5540.85 2464.62C5536.34 2461.05 5529.39 2458.33 5520 2456.45L5482.52 2448.98C5461.39 2444.76 5445.66 2437.43 5435.33 2427.01C5425.1 2416.58 5419.98 2403.29 5419.98 2387.14C5419.98 2373.24 5423.73 2361.27 5431.25 2351.22C5438.85 2341.17 5449.51 2333.42 5463.22 2327.97C5477.03 2322.53 5493.18 2319.8 5511.68 2319.8C5539.01 2319.8 5560.52 2325.58 5576.2 2337.13C5591.98 2348.68 5601.19 2364.41 5603.81 2384.32ZM5761.63 2322.62V2367.7H5631.32V2322.62H5761.63ZM5660.9 2270.78H5720.91V2472.51C5720.91 2478.05 5721.76 2482.37 5723.45 2485.47C5725.14 2488.47 5727.49 2490.59 5730.49 2491.81C5733.59 2493.03 5737.16 2493.64 5741.2 2493.64C5744.02 2493.64 5746.83 2493.4 5749.65 2492.94C5752.47 2492.37 5754.63 2491.95 5756.13 2491.67L5765.57 2536.32C5762.57 2537.26 5758.34 2538.34 5752.89 2539.56C5747.44 2540.88 5740.82 2541.68 5733.03 2541.96C5718.57 2542.52 5705.89 2540.6 5694.99 2536.18C5684.19 2531.77 5675.79 2524.91 5669.78 2515.62C5663.77 2506.32 5660.81 2494.58 5660.9 2480.4V2270.78Z" fill="#585858"/>
</g>
<defs>
<linearGradient id="paint0_linear_25_163" x1="2871.5" y1="-1109.5" x2="3505.5" y2="8505.5" gradientUnits="userSpaceOnUse">
<stop stop-color="#B7E1FF"/>
<stop offset="1" stop-color="white"/>
</linearGradient>
<linearGradient id="paint1_linear_25_163" x1="4053" y1="2204.95" x2="5045.5" y2="4958.92" gradientUnits="userSpaceOnUse">
<stop stop-color="#FFA1A1"/>
<stop offset="1" stop-color="#FFEDED"/>
</linearGradient>
<linearGradient id="paint2_linear_25_163" x1="2377" y1="3524.5" x2="4198.1" y2="5307.52" gradientUnits="userSpaceOnUse">
<stop stop-color="#FFA1A1"/>
<stop offset="1" stop-color="#FFEDED"/>
</linearGradient>
<linearGradient id="paint3_linear_25_163" x1="4967.5" y1="597.999" x2="3022.5" y2="2235.5" gradientUnits="userSpaceOnUse">
<stop stop-color="#C7AAE8"/>
<stop offset="1" stop-color="#ECDBFF"/>
</linearGradient>
<linearGradient id="paint4_linear_25_163" x1="4362.5" y1="1093.03" x2="5562.86" y2="3722.13" gradientUnits="userSpaceOnUse">
<stop stop-color="#FFA1A1"/>
<stop offset="1" stop-color="#FFEBEB"/>
</linearGradient>
<linearGradient id="paint5_linear_25_163" x1="4967.5" y1="597.999" x2="3022.5" y2="2235.5" gradientUnits="userSpaceOnUse">
<stop stop-color="#C7AAE8"/>
<stop offset="1" stop-color="#ECDBFF"/>
</linearGradient>
<linearGradient id="paint6_linear_25_163" x1="1861" y1="740.094" x2="2617.37" y2="4107.03" gradientUnits="userSpaceOnUse">
<stop stop-color="#FFA1A1"/>
<stop offset="1" stop-color="#FFCBCB"/>
</linearGradient>
<clipPath id="clip0_25_163">
<rect width="6504" height="6504" fill="white"/>
</clipPath>
</defs>
</svg>
